<?xml version="1.0" encoding="utf-8"?>
<!-- Generator: Adobe Illustrator 26.0.1, SVG Export Plug-In . SVG Version: 6.00 Build 0)  -->
<svg version="1.1" id="Layer_1" xmlns="http://www.w3.org/2000/svg" xmlns:xlink="http://www.w3.org/1999/xlink" x="0px" y="0px"
	 viewBox="0 0 400 393" style="enable-background:new 0 0 400 393;" xml:space="preserve">
<style type="text/css">
	.st0{fill:#FFFFFF;}
</style>
<g>
	<polygon class="st0" points="227.4,224.3 274.2,261.2 237.3,214.4 228.4,215.5 	"/>
	<polygon class="st0" points="191.4,168.6 144.7,131.7 181.5,178.4 190.4,177.4 	"/>
	<polygon class="st0" points="181.6,214.4 144.7,261.2 191.4,224.3 190.4,215.5 	"/>
	<polygon class="st0" points="237.3,178.4 274.2,131.7 227.4,168.6 228.4,177.4 	"/>
	<path class="st0" d="M96.4,204.4l-7.1-0.8c0.8,13.7,3.9,27,9.2,39.7c3,7.1,6.7,14,11.1,20.4c4.3,6.4,9.2,12.4,14.7,17.8
		c5.4,5.4,11.4,10.4,17.8,14.7c6.4,4.3,13.3,8.1,20.4,11.1c12.7,5.4,26,8.5,39.7,9.3l-0.8-7.1C145.3,305.5,100.3,260.5,96.4,204.4z"
		/>
	<path class="st0" d="M217.4,309.4l-0.8,7.1c13.7-0.8,27-3.9,39.7-9.2c7.1-3,14-6.7,20.4-11.1c6.4-4.3,12.4-9.2,17.8-14.7
		s10.4-11.4,14.7-17.8c4.3-6.4,8.1-13.3,11.1-20.4c5.3-12.6,8.4-26,9.2-39.7l-7.1,0.8C318.4,260.5,273.5,305.5,217.4,309.4z"/>
	<path class="st0" d="M201.4,83.4l0.8-7.1c-13.7,0.8-27.1,3.9-39.7,9.3c-7.1,3-14,6.7-20.4,11.1c-6.4,4.3-12.4,9.2-17.8,14.7
		c-5.4,5.4-10.4,11.4-14.7,17.8c-4.3,6.4-8.1,13.3-11.1,20.4c-5.4,12.7-8.5,26-9.3,39.7l7.1-0.8C100.3,132.3,145.3,87.3,201.4,83.4z
		"/>
	<path class="st0" d="M322.4,188.4l7.1,0.8c-0.8-13.7-3.9-27.1-9.3-39.7c-3-7.1-6.7-14-11.1-20.4c-4.3-6.4-9.2-12.4-14.7-17.8
		c-5.4-5.4-11.4-10.4-17.8-14.7c-6.4-4.3-13.3-8.1-20.4-11.1c-12.6-5.3-25.9-8.4-39.7-9.2l0.8,7.1
		C273.5,87.3,318.4,132.3,322.4,188.4z"/>
	<polygon class="st0" points="365.9,196.4 329.6,192.1 329.6,192.1 322.5,191.3 322.5,191.3 237.1,181.2 225.9,179.9 224.6,168.8 
		214.2,80.5 213.7,76.1 213.7,76.1 209.4,39.9 205.1,76.1 205.1,76.1 204.6,80.3 194.2,168.8 192.9,179.9 181.8,181.2 96.2,191.3 
		96.2,191.3 93.6,191.6 52.9,196.4 89.1,200.7 89.1,200.7 96.2,201.5 96.2,201.5 181.7,211.6 192.9,212.9 194.2,224.1 209.4,353 
		214.4,310.8 214.5,309.6 214.5,309.6 224.6,224.1 225.9,212.9 237.1,211.6 322.5,201.5 322.5,201.5 329.6,200.7 329.6,200.7 	"/>
	<path class="st0" d="M193.2,0.5h9.8l12.7,18.7V0.5h9.9v33.8h-9.9L203,15.8v18.6h-9.8V0.5z"/>
	<path class="st0" d="M194.1,381.7l9.9-0.6c0.2,1.6,0.7,2.8,1.3,3.7c1.1,1.4,2.6,2.1,4.6,2.1c1.5,0,2.6-0.3,3.4-1
		c0.8-0.7,1.2-1.5,1.2-2.4c0-0.9-0.4-1.7-1.2-2.4c-0.8-0.7-2.6-1.3-5.4-2c-4.6-1-7.9-2.4-9.8-4.1c-2-1.7-3-3.9-3-6.5
		c0-1.7,0.5-3.4,1.5-4.9c1-1.5,2.5-2.8,4.5-3.6c2-0.9,4.8-1.3,8.3-1.3c4.3,0,7.6,0.8,9.9,2.4c2.3,1.6,3.6,4.2,4,7.7l-9.9,0.6
		c-0.3-1.5-0.8-2.6-1.6-3.3c-0.8-0.7-2-1-3.5-1c-1.2,0-2.1,0.3-2.7,0.8c-0.6,0.5-0.9,1.1-0.9,1.9c0,0.5,0.3,1,0.8,1.5
		c0.5,0.4,1.7,0.9,3.5,1.2c4.6,1,7.8,2,9.8,3c2,1,3.4,2.3,4.3,3.7c0.9,1.5,1.3,3.2,1.3,5c0,2.2-0.6,4.2-1.8,6
		c-1.2,1.8-2.9,3.2-5,4.2c-2.2,0.9-4.9,1.4-8.1,1.4c-5.8,0-9.7-1.1-12-3.3C195.6,387.9,194.4,385.1,194.1,381.7z"/>
	<path class="st0" d="M0,179.5h9.9l3.6,18.9l5.2-18.9h9.9l5.2,18.9l3.6-18.9h9.9l-7.5,33.8H29.6L23.7,192l-5.9,21.3H7.5L0,179.5z"/>
	<path class="st0" d="M371.5,179.5h28v7.2H382v5.4h16.3v6.9H382v6.7h18v7.7h-28.5V179.5z"/>
</g>
</svg>
